<svg xmlns="http://www.w3.org/2000/svg" viewBox="0 0 640 640"><!--!Font Awesome Free 7.2.0 by @fontawesome - https://fontawesome.com License - https://fontawesome.com/license/free Copyright 2026 Fonticons, Inc.--><path d="M320 112c114.9 0 208 93.1 208 208s-93.1 208-208 208-208-93.1-208-208 93.1-208 208-208zm0 464c141.4 0 256-114.6 256-256S461.4 64 320 64 64 178.6 64 320s114.6 256 256 256zm-43.5-364.5c-7.4-4.5-16.7-4.7-24.3-.5-7.6 4.2-12.2 12.3-12.2 21v176c0 8.7 4.7 16.7 12.3 20.9 7.6 4.2 16.8 4.1 24.3-.5l144-88c7.1-4.4 11.5-12.1 11.5-20.5s-4.4-16.1-11.5-20.5l-144-88zM362 320l-74 45.2v-90.4l74 45.2z"/></svg>